<?xml version="1.0" encoding="UTF-8" standalone="no"?>
<!-- Created with Inkscape (http://www.inkscape.org/) -->

<svg
   xmlns:dc="http://purl.org/dc/elements/1.1/"
   xmlns:cc="http://creativecommons.org/ns#"
   xmlns:rdf="http://www.w3.org/1999/02/22-rdf-syntax-ns#"
   xmlns:svg="http://www.w3.org/2000/svg"
   xmlns="http://www.w3.org/2000/svg"
   xmlns:sodipodi="http://sodipodi.sourceforge.net/DTD/sodipodi-0.dtd"
   xmlns:inkscape="http://www.inkscape.org/namespaces/inkscape"
   width="84.666664mm"
   height="84.666664mm"
   viewBox="0 0 299.99999 299.99999"
   id="svg4400"
   version="1.1"
   inkscape:version="0.91 r13725"
   sodipodi:docname="logo_small_loading_dark.svg">
  <defs
     id="defs4402" />
  <sodipodi:namedview
     id="base"
     pagecolor="#ffffff"
     bordercolor="#666666"
     borderopacity="1.0"
     inkscape:pageopacity="0.0"
     inkscape:pageshadow="2"
     inkscape:zoom="1.4"
     inkscape:cx="-200.06289"
     inkscape:cy="102.76289"
     inkscape:document-units="px"
     inkscape:current-layer="layer1"
     showgrid="false"
     fit-margin-top="0"
     fit-margin-left="0"
     fit-margin-right="0"
     fit-margin-bottom="0"
     inkscape:window-width="3200"
     inkscape:window-height="1711"
     inkscape:window-x="-11"
     inkscape:window-y="-11"
     inkscape:window-maximized="1" />
  <metadata
     id="metadata4405">
    <rdf:RDF>
      <cc:Work
         rdf:about="">
        <dc:format>image/svg+xml</dc:format>
        <dc:type
           rdf:resource="http://purl.org/dc/dcmitype/StillImage" />
        <dc:title></dc:title>
      </cc:Work>
    </rdf:RDF>
  </metadata>
  <g
     inkscape:label="Layer 1"
     inkscape:groupmode="layer"
     id="layer1"
     transform="translate(-290,-353.2543)">
    <g
       id="g6404-1-2"
       transform="translate(184.70763,1650.5438)"
       inkscape:export-xdpi="90"
       inkscape:export-ydpi="90">
      <rect
         y="-1291.7531"
         x="130.29237"
         height="250"
         width="250"
         id="rect4160-4-0-5-3-3-3-3-9"
         style="fill:none;fill-opacity:1;stroke:none;stroke-width:4.43179035;stroke-miterlimit:4;stroke-dasharray:none;stroke-opacity:1" />
      <g
         transform="translate(322.94732,-117.77335)"
         id="g6016-7-1-1-9">
        <path
           d="m -106.22659,-977.79238 q -9.4194,4.67939 -19.76231,4.67939 -23.45625,0 -37.21602,-15.78151 -11.08169,-12.7537 -11.08169,-29.5445 0,-16.8826 11.08169,-29.5445 13.75977,-15.7815 37.21602,-15.7815 10.52759,0 19.76231,4.7711 l 0,25.5991 q -8.03418,-5.5969 -15.69905,-5.5969 -9.05003,0 -14.96026,5.7805 -5.91023,5.7804 -5.91023,14.7722 0,8.9918 5.91023,14.7723 5.91023,5.78041 14.96026,5.78041 7.57248,0 15.69905,-5.50521 l 0,25.59912 z"
           style="font-style:normal;font-variant:normal;font-weight:bold;font-stretch:normal;font-size:40px;line-height:125%;font-family:Aharoni;-inkscape-font-specification:'Aharoni, Bold';text-align:start;letter-spacing:0px;word-spacing:0px;writing-mode:lr-tb;text-anchor:start;fill:#008eed;fill-opacity:1;stroke:#000000;stroke-width:4.71294832px;stroke-linecap:butt;stroke-linejoin:miter;stroke-opacity:1"
           id="path4511-4-8-5-0-87-4-1"
           inkscape:connector-curvature="0" />
        <path
           inkscape:connector-curvature="0"
           d="m 36.934804,-1061.1042 -40.1710892,60.3736 36.1078242,0 0,24.77326 -86.898906,0 40.448176,-60.37356 -34.999663,0 0,-24.7733 85.513658,0 z"
           style="font-style:normal;font-weight:normal;font-size:40px;line-height:125%;font-family:sans-serif;letter-spacing:0px;word-spacing:0px;fill:#008eed;fill-opacity:1;stroke:#000000;stroke-width:4.71294832px;stroke-linecap:butt;stroke-linejoin:miter;stroke-opacity:1"
           id="path4514-1-7-4-1-4-8-44" />
        <path
           style="fill:none;fill-opacity:1;stroke:#000000;stroke-width:11.04191494;stroke-linecap:butt;stroke-miterlimit:4;stroke-dasharray:none;stroke-opacity:1"
           id="path4573-3-8-3-9-1-24"
           sodipodi:type="arc"
           sodipodi:cx="1240.5138"
           sodipodi:cy="715.67725"
           sodipodi:rx="31.817019"
           sodipodi:ry="36.009548"
           sodipodi:start="5.8659071"
           sodipodi:end="0.41137658"
           sodipodi:open="true"
           d="m 1269.6008,701.08352 a 31.817019,36.009548 0 0 1 0.076,28.99292"
           transform="matrix(-0.62987893,-0.77669334,0.98273075,-0.1850413,0,0)" />
        <rect
           id="rect3344-0-5-9-0-0-8-9-2"
           width="28.086296"
           height="196.10213"
           x="-94.256203"
           y="-1147.0308"
           style="fill:#008eed;fill-opacity:1;stroke:#000000;stroke-width:4.71294832;stroke-miterlimit:4;stroke-dasharray:none;stroke-opacity:1" />
        <path
           style="fill:none;fill-opacity:1;stroke:#000000;stroke-width:6.88531065;stroke-linecap:round;stroke-miterlimit:4;stroke-dasharray:none;stroke-opacity:1"
           id="path4573-2-4-7-4-2"
           sodipodi:type="arc"
           sodipodi:cx="-1174.1134"
           sodipodi:cy="-228.7574"
           sodipodi:rx="25.452957"
           sodipodi:ry="45.432957"
           sodipodi:start="0.40000957"
           sodipodi:end="2.7118829"
           sodipodi:open="true"
           d="m -1150.6698,-211.06457 a 25.452957,45.432957 0 0 1 -23.0656,27.73512 25.452957,45.432957 0 0 1 -23.5169,-26.50026"
           transform="matrix(-0.11232951,0.99367101,0.95205781,-0.30591817,0,0)" />
        <g
           id="g4575-1-4-7-7-0"
           transform="matrix(4.7281862,0,0,4.6977595,-859.8467,-2881.2688)">
          <g
             id="g4401-6-1-8-2-6-5-6"
             style="display:inline"
             transform="matrix(0.52838923,-0.08882706,0.10666038,0.63447103,15.265411,301.55384)">
            <ellipse
               transform="matrix(0.98651177,-0.16369033,0.23267534,0.97255446,0,0)"
               style="display:inline;fill:#000000;fill-opacity:1;stroke:none;stroke-width:0.60000002;stroke-linecap:round;stroke-miterlimit:4;stroke-dasharray:none;stroke-opacity:1"
               id="path4329-7-9-8-3-9-8-7-7"
               cx="188.16978"
               cy="189.19911"
               rx="9.2026863"
               ry="2.9763868" />
            <ellipse
               transform="matrix(0.98651177,-0.16369033,0.23267534,0.97255446,0,0)"
               style="fill:#ffffff;fill-opacity:1;stroke:#000000;stroke-width:0.50062037;stroke-linecap:round;stroke-miterlimit:4;stroke-dasharray:none;stroke-opacity:1"
               id="path4329-77-4-7-6-1-2-41"
               cx="188.18878"
               cy="188.76018"
               rx="8.952755"
               ry="2.7156811" />
            <path
               transform="matrix(0.98651177,-0.16369033,0.23267534,0.97255446,0,0)"
               style="display:inline;fill:none;fill-opacity:1;stroke:#000000;stroke-width:0.46724349;stroke-linecap:round;stroke-miterlimit:4;stroke-dasharray:none;stroke-opacity:1"
               id="path4329-8-3-4-4-3-1-3-91"
               sodipodi:type="arc"
               sodipodi:cx="188.14293"
               sodipodi:cy="188.70143"
               sodipodi:rx="7.9407778"
               sodipodi:ry="1.8521643"
               sodipodi:start="0.26179939"
               sodipodi:end="3.1415927"
               sodipodi:open="true"
               d="m 195.81313,189.18081 a 7.9407778,1.8521643 0 0 1 -8.70668,1.35694 7.9407778,1.8521643 0 0 1 -6.9043,-1.83632" />
          </g>
        </g>
        <path
           style="fill:#000000;fill-opacity:1;fill-rule:evenodd;stroke:none;stroke-width:0.2;stroke-linecap:round;stroke-linejoin:miter;stroke-miterlimit:4;stroke-dasharray:none;stroke-opacity:1"
           d="m -72.662947,-1081.5507 c -0.791405,0.4458 -0.985212,0.6271 -1.691462,1.1307 -0.317261,0.2265 -4.636411,6.8206 -4.636411,6.8206 4.489648,-0.8016 6.16891,-1.2587 9.274904,-3.0739 0,0 -1.254955,-5.8307 -2.947031,-4.8774 z"
           id="path4603-7-7-8-7-1"
           inkscape:connector-curvature="0"
           sodipodi:nodetypes="ssccs" />
        <path
           style="fill:#000000;fill-opacity:1;fill-rule:evenodd;stroke:none;stroke-width:1px;stroke-linecap:butt;stroke-linejoin:miter;stroke-opacity:1"
           d="m -122.94201,-1117.6459 c 5.55496,-0.613 8.00014,2.3722 8.59935,3.5562 0.45863,0.906 2.17931,6.0337 -0.84049,8.0963 0,0 11.70236,-7.5086 12.54071,-7.8797 4.155651,-1.8395 1.43794,-11.9964 -6.55293,-8.9734 z"
           id="path4653-0-0-5-09"
           inkscape:connector-curvature="0"
           sodipodi:nodetypes="cssssc" />
      </g>
    </g>
    <g
       transform="translate(-506.46289,-20.203051)"
       style="font-style:normal;font-weight:normal;font-size:40px;line-height:125%;font-family:sans-serif;letter-spacing:0px;word-spacing:0px;fill:#404040;fill-opacity:1;stroke:none;stroke-width:1px;stroke-linecap:butt;stroke-linejoin:miter;stroke-opacity:1"
       id="flowRoot5601">
      <path
         d="m 874.65625,658.78027 -15.25391,0 0,-26.66015 6.9336,0 0,20.85937 8.32031,0 0,5.80078 z"
         style="font-style:normal;font-variant:normal;font-weight:bold;font-stretch:normal;font-size:40px;line-height:125%;font-family:Aharoni;-inkscape-font-specification:'Aharoni, Bold';text-align:start;writing-mode:lr-tb;text-anchor:start;fill:#404040;fill-opacity:1"
         id="path4216" />
      <path
         d="m 898.71875,649.71777 q 0,3.76953 -2.48047,6.46485 -3.00781,3.28125 -8.41797,3.28125 -5.42969,0 -8.4375,-3.28125 -2.48047,-2.69532 -2.48047,-6.6211 0,-3.53515 2.5,-6.26953 3.02735,-3.30078 8.61328,-3.30078 5.13672,0 8.20313,3.30078 2.5,2.69531 2.5,6.42578 z m -6.66016,0 q 0,-1.75781 -1.25,-2.96875 -1.23047,-1.23047 -2.98828,-1.23047 -1.99219,0 -3.24219,1.48438 -1.01562,1.19141 -1.01562,2.71484 0,1.54297 1.01562,2.73438 1.25,1.48437 3.24219,1.48437 1.77735,0 3.00781,-1.21093 1.23047,-1.23047 1.23047,-3.00782 z"
         style="font-style:normal;font-variant:normal;font-weight:bold;font-stretch:normal;font-size:40px;line-height:125%;font-family:Aharoni;-inkscape-font-specification:'Aharoni, Bold';text-align:start;writing-mode:lr-tb;text-anchor:start;fill:#404040;fill-opacity:1"
         id="path4218" />
      <path
         d="m 922.82031,658.78027 -6.40625,0 0,-2.01172 q -0.91797,1.15235 -1.85547,1.67969 -1.64062,0.91797 -3.73047,0.91797 -3.3789,0 -6.01562,-2.32422 -3.14453,-2.77344 -3.14453,-7.34375 0,-4.64844 3.22265,-7.42187 2.5586,-2.20703 5.87891,-2.20703 1.93359,0 3.63281,0.82031 0.97657,0.46875 2.01172,1.54297 l 0,-1.77735 6.40625,0 0,18.125 z m -6.21094,-9.0625 q 0,-1.71875 -1.21093,-2.91015 -1.21094,-1.21094 -2.92969,-1.21094 -1.91406,0 -3.14453,1.44531 -0.9961,1.17188 -0.9961,2.67578 0,1.50391 0.9961,2.67578 1.21094,1.44532 3.14453,1.44532 1.73828,0 2.92969,-1.19141 1.21093,-1.19141 1.21093,-2.92969 z"
         style="font-style:normal;font-variant:normal;font-weight:bold;font-stretch:normal;font-size:40px;line-height:125%;font-family:Aharoni;-inkscape-font-specification:'Aharoni, Bold';text-align:start;writing-mode:lr-tb;text-anchor:start;fill:#404040;fill-opacity:1"
         id="path4220" />
      <path
         d="m 947.66406,658.78027 -6.40625,0 0,-2.01172 q -0.91797,1.15235 -1.85547,1.67969 -1.64062,0.91797 -3.73047,0.91797 -3.3789,0 -6.01562,-2.32422 -3.14453,-2.77344 -3.14453,-7.34375 0,-4.64844 3.22265,-7.42187 2.5586,-2.20703 5.87891,-2.20703 1.93359,0 3.63281,0.82031 0.97657,0.46875 2.01172,1.54297 l 0,-12.98828 6.40625,0 0,29.33593 z m -6.21094,-9.0625 q 0,-1.71875 -1.21093,-2.91015 -1.21094,-1.21094 -2.92969,-1.21094 -1.91406,0 -3.14453,1.44531 -0.9961,1.17188 -0.9961,2.67578 0,1.50391 0.9961,2.67578 1.21094,1.44532 3.14453,1.44532 1.73828,0 2.92969,-1.19141 1.21093,-1.19141 1.21093,-2.92969 z"
         style="font-style:normal;font-variant:normal;font-weight:bold;font-stretch:normal;font-size:40px;line-height:125%;font-family:Aharoni;-inkscape-font-specification:'Aharoni, Bold';text-align:start;writing-mode:lr-tb;text-anchor:start;fill:#404040;fill-opacity:1"
         id="path4222" />
      <path
         d="m 958.875,633.68262 q 0,1.52343 -1.05469,2.57812 -1.03515,1.03516 -2.55859,1.03516 -1.50391,0 -2.5586,-1.05469 -1.03515,-1.05469 -1.03515,-2.55859 0,-1.50391 1.03515,-2.53907 1.05469,-1.05468 2.5586,-1.05468 1.5039,0 2.55859,1.05468 1.05469,1.03516 1.05469,2.53907 z m -0.41016,25.09765 -6.40625,0 0,-18.125 6.40625,0 0,18.125 z"
         style="font-style:normal;font-variant:normal;font-weight:bold;font-stretch:normal;font-size:40px;line-height:125%;font-family:Aharoni;-inkscape-font-specification:'Aharoni, Bold';text-align:start;writing-mode:lr-tb;text-anchor:start;fill:#404040;fill-opacity:1"
         id="path4224" />
      <path
         d="m 981.98047,658.78027 -6.40625,0 0,-9.17968 q 0,-2.40235 -0.54688,-3.1836 -0.80078,-1.15234 -2.40234,-1.15234 -1.46484,0 -2.46094,0.99609 -0.89844,0.89844 -0.89844,2.8125 l 0,9.70703 -6.40625,0 0,-18.125 6.40625,0 0,2.28516 q 1.11329,-1.28906 2.05079,-1.81641 1.52343,-0.85937 3.80859,-0.85937 2.92969,0 4.76562,1.58203 2.08985,1.79687 2.08985,5.39062 l 0,11.54297 z"
         style="font-style:normal;font-variant:normal;font-weight:bold;font-stretch:normal;font-size:40px;line-height:125%;font-family:Aharoni;-inkscape-font-specification:'Aharoni, Bold';text-align:start;writing-mode:lr-tb;text-anchor:start;fill:#404040;fill-opacity:1"
         id="path4226" />
      <path
         d="m 1006.668,657.53027 q 0,2.38282 -0.3321,3.84766 -0.5273,2.34375 -2.7343,4.19922 -2.793,2.34375 -7.42191,2.34375 -4.84375,0 -7.71485,-2.5586 -1.91406,-1.69921 -2.4414,-3.55468 -0.0586,-0.19532 -0.15625,-0.82032 l 7.20703,0 q 0.3125,0.89844 0.83984,1.28907 0.85938,0.64453 2.1875,0.64453 2.22656,0 3.41797,-1.58203 0.74217,-0.9961 0.74217,-2.85157 l 0,-1.71875 q -1.15233,1.05469 -1.93358,1.48438 -1.62109,0.89844 -3.82812,0.89844 -2.77344,0 -4.96094,-1.42578 -2.24609,-1.46485 -3.22265,-4.00391 -0.66407,-1.71875 -0.66407,-3.73047 0,-4.45312 2.83203,-7.24609 2.63672,-2.59766 6.34766,-2.59766 1.97266,0 3.51563,0.80078 0.91796,0.48828 1.91404,1.60156 l 0,-1.89453 6.4063,0 0,16.875 z m -6.0938,-7.87109 q 0,-1.73828 -1.19139,-2.98828 -1.1914,-1.25 -2.92969,-1.25 -1.93359,0 -3.16406,1.48437 -0.97656,1.19141 -0.97656,2.75391 0,1.73828 1.19141,2.98828 1.21093,1.23047 2.94921,1.23047 1.71875,0 2.91016,-1.23047 1.21092,-1.25 1.21092,-2.98828 z"
         style="font-style:normal;font-variant:normal;font-weight:bold;font-stretch:normal;font-size:40px;line-height:125%;font-family:Aharoni;-inkscape-font-specification:'Aharoni, Bold';text-align:start;writing-mode:lr-tb;text-anchor:start;fill:#404040;fill-opacity:1"
         id="path4228" />
      <path
         d="m 1015.8672,656.74902 q 0,0.97657 -0.6836,1.66016 -0.6836,0.68359 -1.6602,0.68359 -1.0156,0 -1.7187,-0.68359 -0.6836,-0.68359 -0.6836,-1.66016 0,-0.97656 0.6836,-1.64062 0.7031,-0.6836 1.7187,-0.6836 0.9766,0 1.6602,0.6836 0.6836,0.66406 0.6836,1.64062 z"
         style="font-style:normal;font-variant:normal;font-weight:bold;font-stretch:normal;font-size:40px;line-height:125%;font-family:Aharoni;-inkscape-font-specification:'Aharoni, Bold';text-align:start;writing-mode:lr-tb;text-anchor:start;fill:#404040;fill-opacity:1"
         id="path4230" />
      <path
         d="m 1024.6953,656.74902 q 0,0.97657 -0.6836,1.66016 -0.6836,0.68359 -1.6601,0.68359 -1.0157,0 -1.7188,-0.68359 -0.6836,-0.68359 -0.6836,-1.66016 0,-0.97656 0.6836,-1.64062 0.7031,-0.6836 1.7188,-0.6836 0.9765,0 1.6601,0.6836 0.6836,0.66406 0.6836,1.64062 z"
         style="font-style:normal;font-variant:normal;font-weight:bold;font-stretch:normal;font-size:40px;line-height:125%;font-family:Aharoni;-inkscape-font-specification:'Aharoni, Bold';text-align:start;writing-mode:lr-tb;text-anchor:start;fill:#404040;fill-opacity:1"
         id="path4232" />
      <path
         d="m 1033.5234,656.74902 q 0,0.97657 -0.6836,1.66016 -0.6835,0.68359 -1.6601,0.68359 -1.0156,0 -1.7188,-0.68359 -0.6836,-0.68359 -0.6836,-1.66016 0,-0.97656 0.6836,-1.64062 0.7032,-0.6836 1.7188,-0.6836 0.9766,0 1.6601,0.6836 0.6836,0.66406 0.6836,1.64062 z"
         style="font-style:normal;font-variant:normal;font-weight:bold;font-stretch:normal;font-size:40px;line-height:125%;font-family:Aharoni;-inkscape-font-specification:'Aharoni, Bold';text-align:start;writing-mode:lr-tb;text-anchor:start;fill:#404040;fill-opacity:1"
         id="path4234" />
    </g>
    <rect
       style="fill:none;fill-opacity:1;stroke:none;stroke-width:4.71299982;stroke-linecap:round;stroke-linejoin:miter;stroke-miterlimit:4;stroke-dasharray:none;stroke-dashoffset:0;stroke-opacity:1"
       id="rect5609"
       width="300"
       height="300"
       x="290"
       y="353.2543" />
  </g>
</svg>
