<?xml version="1.0" encoding="UTF-8" standalone="no"?>
<!-- Created with Inkscape (http://www.inkscape.org/) -->

<svg
   xmlns:dc="http://purl.org/dc/elements/1.1/"
   xmlns:cc="http://creativecommons.org/ns#"
   xmlns:rdf="http://www.w3.org/1999/02/22-rdf-syntax-ns#"
   xmlns:svg="http://www.w3.org/2000/svg"
   xmlns="http://www.w3.org/2000/svg"
   xmlns:sodipodi="http://sodipodi.sourceforge.net/DTD/sodipodi-0.dtd"
   xmlns:inkscape="http://www.inkscape.org/namespaces/inkscape"
   width="53.91341mm"
   height="15.353446mm"
   viewBox="0 0 191.03177 54.401974"
   id="svg4685"
   version="1.1"
   inkscape:version="0.91 r13725"
   sodipodi:docname="logo_block.svg">
  <defs
     id="defs4687" />
  <sodipodi:namedview
     id="base"
     pagecolor="#ffffff"
     bordercolor="#666666"
     borderopacity="1.0"
     inkscape:pageopacity="0.0"
     inkscape:pageshadow="2"
     inkscape:zoom="2.8"
     inkscape:cx="387.24024"
     inkscape:cy="106.12639"
     inkscape:document-units="px"
     inkscape:current-layer="layer1"
     showgrid="false"
     fit-margin-top="0"
     fit-margin-left="0"
     fit-margin-right="0"
     fit-margin-bottom="0"
     inkscape:window-width="3200"
     inkscape:window-height="1711"
     inkscape:window-x="-11"
     inkscape:window-y="-11"
     inkscape:window-maximized="1" />
  <metadata
     id="metadata4690">
    <rdf:RDF>
      <cc:Work
         rdf:about="">
        <dc:format>image/svg+xml</dc:format>
        <dc:type
           rdf:resource="http://purl.org/dc/dcmitype/StillImage" />
        <dc:title></dc:title>
      </cc:Work>
    </rdf:RDF>
  </metadata>
  <g
     inkscape:label="Layer 1"
     inkscape:groupmode="layer"
     id="layer1"
     transform="translate(-304.4841,-270.87552)">
    <rect
       style="display:inline;fill:#dedede;fill-opacity:1;stroke:#000000;stroke-width:1;stroke-miterlimit:4;stroke-dasharray:none;stroke-opacity:1"
       id="rect4160-4-2"
       width="190.03177"
       height="53.401974"
       x="304.9841"
       y="271.37552" />
    <g
       style="font-style:normal;font-variant:normal;font-weight:bold;font-stretch:normal;font-size:40px;line-height:125%;font-family:Aharoni;-inkscape-font-specification:'Aharoni, Bold';text-align:start;letter-spacing:0px;word-spacing:0px;writing-mode:lr-tb;text-anchor:start;display:inline;fill:none;fill-opacity:1;stroke:#000000;stroke-width:1px;stroke-linecap:butt;stroke-linejoin:miter;stroke-opacity:1"
       id="text3336-6-6"
       transform="translate(92.088973,54.315649)">
      <path
         d="m 239.08444,258.00385 -6.40625,0 0,-2.01172 q -0.91797,1.15234 -1.85547,1.67968 -1.64062,0.91797 -3.73047,0.91797 -3.3789,0 -6.01562,-2.32422 -3.14453,-2.77343 -3.14453,-7.34375 0,-4.64843 3.22265,-7.42187 2.5586,-2.20703 5.87891,-2.20703 1.93359,0 3.63281,0.82031 0.97657,0.46875 2.01172,1.54297 l 0,-12.98828 6.40625,0 0,29.33594 z m -6.21094,-9.0625 q 0,-1.71875 -1.21093,-2.91016 -1.21094,-1.21094 -2.92969,-1.21094 -1.91406,0 -3.14453,1.44531 -0.9961,1.17188 -0.9961,2.67579 0,1.5039 0.9961,2.67578 1.21094,1.44531 3.14453,1.44531 1.73828,0 2.92969,-1.19141 1.21093,-1.1914 1.21093,-2.92968 z"
         style="fill:#ffffff;fill-opacity:1"
         id="path4505-9"
         inkscape:connector-curvature="0" />
      <path
         d="m 249.88522,258.00385 -6.40625,0 0,-18.125 6.40625,0 z"
         style="fill:#ffffff;fill-opacity:1"
         id="path4507-2"
         inkscape:connector-curvature="0"
         sodipodi:nodetypes="ccccc" />
      <path
         d="m 269.02585,251.89056 q 0,2.89063 -2.07031,4.72657 -2.32422,2.07031 -6.54297,2.07031 -3.73047,0 -7.2461,-2.08984 l 2.32422,-4.53125 q 2.75391,1.8164 5.11719,1.8164 2.01172,0 2.01172,-1.38672 0,-0.72265 -0.70313,-1.11328 -0.44922,-0.2539 -2.03125,-0.60547 -1.77734,-0.39062 -2.32422,-0.60547 -1.95312,-0.76171 -2.63671,-2.38281 -0.3711,-0.8789 -0.3711,-2.10937 0,-2.38282 1.6211,-4.16016 2.08984,-2.28516 6.44531,-2.28516 3.02734,0 5.8789,1.17188 l -2.16796,4.14062 q -1.79688,-0.91796 -3.4375,-0.91796 -1.9336,0 -1.9336,1.32812 0,0.60547 0.78125,0.97656 0.35156,0.17578 2.07031,0.52735 2.51954,0.52734 3.71094,1.67968 1.50391,1.44532 1.50391,3.75 z"
         style="fill:#ffffff;fill-opacity:1"
         id="path4509-5"
         inkscape:connector-curvature="0" />
      <path
         d="m 285.9985,257.61322 q -1.99218,0.99609 -4.17968,0.99609 -4.96094,0 -7.8711,-3.35937 -2.34375,-2.71484 -2.34375,-6.28906 0,-3.59375 2.34375,-6.28907 2.91016,-3.35937 7.8711,-3.35937 2.22656,0 4.17968,1.01562 l 0,5.44922 q -1.69921,-1.1914 -3.32031,-1.1914 -1.91406,0 -3.16406,1.23047 -1.25,1.23046 -1.25,3.14453 0,1.91406 1.25,3.14453 1.25,1.23047 3.16406,1.23047 1.60156,0 3.32031,-1.17188 l 0,5.44922 z"
         style="fill:#008edd;fill-opacity:1;stroke:#000000;stroke-opacity:1"
         id="path4511-9"
         inkscape:connector-curvature="0" />
    </g>
    <g
       style="font-style:normal;font-weight:normal;font-size:40px;line-height:125%;font-family:sans-serif;letter-spacing:0px;word-spacing:0px;display:inline;fill:none;fill-opacity:1;stroke:#000000;stroke-width:1px;stroke-linecap:butt;stroke-linejoin:miter;stroke-opacity:1"
       id="text3340-1-1"
       transform="translate(107.08898,96.101359)">
      <path
         d="m 301.27679,198.09312 -8.49609,12.85157 7.63672,0 0,5.27343 -18.37891,0 8.55469,-12.85156 -7.40234,0 0,-5.27344 18.08593,0 z"
         style="fill:#008eed;fill-opacity:1"
         id="path4514-15"
         inkscape:connector-curvature="0" />
      <path
         d="m 323.60101,209.59703 q 0,5.05859 -4.78515,6.71875 -1.99219,0.68359 -4.86328,0.68359 -5.64454,0 -8.10547,-2.77343 -1.5625,-1.75782 -1.5625,-4.62891 l 0,-11.50391 6.40625,0 0,10.27344 q 0,1.69922 0.82031,2.5 0.87891,0.85938 2.44141,0.85938 1.54296,0 2.42187,-0.85938 0.82031,-0.80078 0.82031,-2.5 l 0,-10.27344 6.40625,0 0,11.50391 z"
         style="fill:#ffffff;fill-opacity:1"
         id="path4516-9"
         inkscape:connector-curvature="0" />
      <path
         d="m 358.62054,216.21812 -6.40625,0 0,-8.96484 q 0,-2.34375 -0.48828,-3.20312 -0.72265,-1.26954 -2.16797,-1.26954 -1.60156,0 -2.46093,1.38672 -0.60547,0.97657 -0.60547,3.08594 l 0,8.96484 -6.40625,0 0,-8.96484 q 0,-2.34375 -0.39063,-3.04687 -0.78125,-1.40625 -2.40234,-1.40625 -1.50391,0 -2.34375,1.21093 -0.3125,0.42969 -0.44922,1.19141 -0.13672,0.74219 -0.13672,2.05078 l 0,8.96484 -6.40625,0 0,-18.125 6.40625,0 0,2.22657 q 1.13281,-1.09375 2.07031,-1.60157 1.69922,-0.91796 3.78907,-0.91796 2.67578,0 4.45312,1.38671 0.89844,0.70313 1.71875,1.99219 0.74219,-1.21094 1.66016,-1.91406 1.93359,-1.48438 4.41406,-1.48438 2.03125,0 3.61328,0.97657 1.69922,1.07422 2.22656,2.91015 0.3125,1.11328 0.3125,2.77344 l 0,11.77734 z"
         style="fill:#ffffff;fill-opacity:1"
         id="path4518-5"
         inkscape:connector-curvature="0" />
      <path
         d="m 384.18695,207.17516 q 0,4.64843 -3.22266,7.42187 -2.55859,2.20703 -5.8789,2.20703 -1.9336,0 -3.63281,-0.82031 -0.97657,-0.46875 -2.01172,-1.54297 l 0,10.83984 -6.40625,0 0,-27.1875 6.40625,0 0,2.01172 q 0.85937,-1.13281 1.85547,-1.67968 1.64062,-0.91797 3.73046,-0.91797 3.37891,0 6.01563,2.32422 3.14453,2.77343 3.14453,7.34375 z m -6.66016,-0.0195 q 0,-1.54296 -0.97656,-2.67578 -1.23047,-1.44531 -3.16406,-1.44531 -1.73828,0 -2.94922,1.19141 -1.19141,1.1914 -1.19141,2.92968 0,1.71875 1.21094,2.92969 1.21094,1.19141 2.92969,1.19141 1.93359,0 3.14453,-1.44531 0.99609,-1.17188 0.99609,-2.67579 z"
         style="fill:#ffffff;fill-opacity:1"
         id="path4520-5"
         inkscape:connector-curvature="0" />
    </g>
    <rect
       id="rect3344-0-66"
       width="5.9401841"
       height="41.743755"
       x="380.61923"
       y="275.90347"
       style="display:inline;fill:#008edd;fill-opacity:1;stroke:#000000;stroke-width:1;stroke-miterlimit:4;stroke-dasharray:none;stroke-opacity:1" />
    <g
       id="g4401-6-1-8-9"
       style="display:inline"
       transform="matrix(0.52838923,-0.08882706,0.10666038,0.63447103,201.22425,211.82946)">
      <ellipse
         transform="matrix(0.98651177,-0.16369033,0.23267534,0.97255446,0,0)"
         style="display:inline;fill:#000000;fill-opacity:1;stroke:none;stroke-width:0.60000002;stroke-linecap:round;stroke-miterlimit:4;stroke-dasharray:none;stroke-opacity:1"
         id="path4329-7-9-8-3-1"
         cx="188.16978"
         cy="189.19911"
         rx="9.2026863"
         ry="2.9763868" />
      <ellipse
         transform="matrix(0.98651177,-0.16369033,0.23267534,0.97255446,0,0)"
         style="fill:#ffffff;fill-opacity:1;stroke:#000000;stroke-width:0.50062037;stroke-linecap:round;stroke-miterlimit:4;stroke-dasharray:none;stroke-opacity:1"
         id="path4329-77-4-7-7"
         cx="188.18878"
         cy="188.76018"
         rx="8.952755"
         ry="2.7156811" />
      <path
         transform="matrix(0.98651177,-0.16369033,0.23267534,0.97255446,0,0)"
         style="display:inline;fill:none;fill-opacity:1;stroke:#000000;stroke-width:0.46724349;stroke-linecap:round;stroke-miterlimit:4;stroke-dasharray:none;stroke-opacity:1"
         id="path4329-8-3-4-4-6"
         sodipodi:type="arc"
         sodipodi:cx="188.14293"
         sodipodi:cy="188.70143"
         sodipodi:rx="7.9407778"
         sodipodi:ry="1.8521643"
         sodipodi:start="0.26179939"
         sodipodi:end="3.1415927"
         sodipodi:open="true"
         d="m 195.81313,189.18081 a 7.9407778,1.8521643 0 0 1 -8.70668,1.35694 7.9407778,1.8521643 0 0 1 -6.9043,-1.83632" />
    </g>
  </g>
</svg>
