<?xml version="1.0" encoding="UTF-8" standalone="no"?>
<!-- Created with Inkscape (http://www.inkscape.org/) -->

<svg
   xmlns:dc="http://purl.org/dc/elements/1.1/"
   xmlns:cc="http://creativecommons.org/ns#"
   xmlns:rdf="http://www.w3.org/1999/02/22-rdf-syntax-ns#"
   xmlns:svg="http://www.w3.org/2000/svg"
   xmlns="http://www.w3.org/2000/svg"
   xmlns:sodipodi="http://sodipodi.sourceforge.net/DTD/sodipodi-0.dtd"
   xmlns:inkscape="http://www.inkscape.org/namespaces/inkscape"
   width="54.534882"
   height="200"
   viewBox="0 0 54.534884 200"
   id="svg4375"
   version="1.1"
   inkscape:version="0.91 r13725"
   sodipodi:docname="bracket_left.svg">
  <defs
     id="defs4377" />
  <sodipodi:namedview
     id="base"
     pagecolor="#ffffff"
     bordercolor="#666666"
     borderopacity="1.0"
     inkscape:pageopacity="0.0"
     inkscape:pageshadow="2"
     inkscape:zoom="1.4"
     inkscape:cx="88.583579"
     inkscape:cy="34.92904"
     inkscape:document-units="px"
     inkscape:current-layer="layer1"
     showgrid="false"
     inkscape:window-width="1920"
     inkscape:window-height="1047"
     inkscape:window-x="3189"
     inkscape:window-y="-11"
     inkscape:window-maximized="1"
     fit-margin-top="0"
     fit-margin-left="0"
     fit-margin-right="0"
     fit-margin-bottom="0"
     units="px" />
  <metadata
     id="metadata4380">
    <rdf:RDF>
      <cc:Work
         rdf:about="">
        <dc:format>image/svg+xml</dc:format>
        <dc:type
           rdf:resource="http://purl.org/dc/dcmitype/StillImage" />
        <dc:title />
      </cc:Work>
    </rdf:RDF>
  </metadata>
  <g
     inkscape:label="Layer 1"
     inkscape:groupmode="layer"
     id="layer1"
     transform="translate(1008.4251,140.13702)">
    <flowRoot
       xml:space="preserve"
       id="flowRoot4923"
       style="font-style:normal;font-weight:normal;font-size:40px;line-height:125%;font-family:sans-serif;letter-spacing:0px;word-spacing:0px;fill:#000000;fill-opacity:1;stroke:none;stroke-width:1px;stroke-linecap:butt;stroke-linejoin:miter;stroke-opacity:1"><flowRegion
         id="flowRegion4925"><rect
           id="rect4927"
           width="294.28571"
           height="448.57144"
           x="-788.57141"
           y="52.362206" /></flowRegion><flowPara
         id="flowPara4929" /></flowRoot>    <g
       style="font-style:normal;font-variant:normal;font-weight:bold;font-stretch:normal;font-size:238.13954163px;line-height:125%;font-family:Aharoni;-inkscape-font-specification:'Aharoni Bold';letter-spacing:0px;word-spacing:0px;fill:#000000;fill-opacity:1;stroke:none;stroke-width:1px;stroke-linecap:butt;stroke-linejoin:miter;stroke-opacity:1"
       id="text4931">
      <path
         d="m -953.89021,59.165309 q -4.30233,0.697674 -8.02326,0.697674 -16.51163,0 -23.13954,-10.813953 -5.11627,-8.255815 -5.23255,-25.581396 0,-4.767442 0.34883,-13.9534892 0.34884,-9.65116307 0.34884,-13.9534888 0,-14.767442 -2.67442,-22.209303 -4.30232,-11.627907 -16.16279,-13.488372 11.86047,-1.860466 16.16279,-13.488373 2.67442,-7.441861 2.67442,-22.209303 0,-4.302326 -0.34884,-13.953489 -0.34883,-9.186046 -0.34883,-13.953486 0.11628,-17.32558 5.23255,-25.5814 6.62791,-10.81395 23.13954,-10.81395 3.72093,0 8.02326,0.69767 -20,5.23256 -20.23256,35.23256 0,5.465118 0.58139,16.046513 0.5814,11.046512 0.5814,15.930233 0,14.302326 -3.25582,21.39535 -4.30232,9.186047 -15.23255,10.697675 10.93023,1.511628 15.23255,10.697674 3.25582,7.209303 3.25582,21.5116288 0,4.8837211 -0.5814,15.6976749 -0.58139,10.6976743 -0.58139,16.1627913 0.23256,30.000001 20.23256,35.232559 z"
         style=""
         id="path4386" />
    </g>
  </g>
</svg>
